<svg width="25" height="25" viewBox="0 0 25 25" fill="none" xmlns="http://www.w3.org/2000/svg">
<g clip-path="url(#clip0)">
<path d="M23.619 0.000976562H1.37981C0.61828 0.000976562 0 0.618022 0 1.38079V23.6199C0 24.3827 0.61828 25.0006 1.37981 25.0006H13.3527V15.3193H10.095V11.5458H13.3527V8.7631C13.3527 5.53462 15.324 3.77569 18.2047 3.77569C19.5857 3.77569 20.77 3.87902 21.1154 3.92388V7.29849L19.1173 7.29932C17.551 7.29932 17.2489 8.04397 17.2489 9.13604V11.5445H20.9857L20.4971 15.3176H17.2484V24.9993H23.6185C24.3809 24.9993 24.9996 24.3806 24.9996 23.6199V1.37996C24.9992 0.618022 24.3813 0.000976562 23.619 0.000976562Z" fill="#4581B8"/>
</g>
<defs>
<clipPath id="clip0">
<rect width="25.0004" height="25" fill="white"/>
</clipPath>
</defs>
</svg>
